<svg xmlns="http://www.w3.org/2000/svg" viewBox="0 0 64 64" role="img" aria-labelledby="quackbase-favicon-title quackbase-favicon-desc">
  <title id="quackbase-favicon-title">Quackbase favicon</title>
  <desc id="quackbase-favicon-desc">Orange Quackbase duck shield icon.</desc>
  <defs>
    <linearGradient id="quackbase-favicon-gradient" x1="14" y1="10" x2="50" y2="54" gradientUnits="userSpaceOnUse">
      <stop stop-color="#FF9759"/>
      <stop offset="1" stop-color="#FE6209"/>
    </linearGradient>
  </defs>
  <path d="M32 4 52 12.5v16.7C52 41.7 44.4 53 32 58 19.6 53 12 41.7 12 29.2V12.5L32 4Z" fill="url(#quackbase-favicon-gradient)"/>
  <path d="M32 14.8c6 0 10.9 4.2 10.9 9.4 0 1.4-.3 2.8-1 4 2.1 1.6 3.5 4.1 3.5 6.8 0 5-4.5 9.2-10.2 9.8v3.1a2.2 2.2 0 0 1-2.2 2.2h-1.9a2.2 2.2 0 0 1-2.2-2.2v-3.1c-5.8-.6-10.2-4.8-10.2-9.8 0-2.8 1.4-5.2 3.5-6.8-.7-1.2-1-2.6-1-4 0-5.2 4.9-9.4 10.8-9.4Z" fill="#FFF7F2"/>
  <path d="M32 20c-3.2 0-5.8 1.9-5.8 4.6 0 1 .4 2 1.3 2.8l1.8 1.8-2.3 1c-2 1-3.4 2.7-3.4 4.8 0 3.1 3.2 5.6 7.1 5.6h2.6c4 0 7.2-2.5 7.2-5.6 0-2.1-1.4-3.8-3.4-4.8l-2.4-1 1.8-1.8c.8-.8 1.3-1.7 1.3-2.8 0-2.6-2.6-4.6-5.8-4.6Z" fill="#FE6209"/>
  <circle cx="37.1" cy="24.2" r="1.5" fill="#FFF7F2"/>
  <path d="M39.8 30c2.2.1 4.3.7 5.8 1.6-2.5 1.6-5.4 2.4-8.4 2.4 0-1.6 1.2-3.5 2.6-4Z" fill="#FFC59F"/>
</svg>
